<svg width="21" height="21" viewBox="0 0 21 21" fill="none" xmlns="http://www.w3.org/2000/svg">
<path opacity="0.2" d="M18.5 10.7143C18.5 15.1326 14.9183 18.7143 10.5 18.7143C6.08172 18.7143 2.5 15.1326 2.5 10.7143C2.5 6.29602 6.08172 2.71429 10.5 2.71429C14.9183 2.71429 18.5 6.29602 18.5 10.7143ZM4.74178 10.7143C4.74178 13.8945 7.31982 16.4725 10.5 16.4725C13.6802 16.4725 16.2582 13.8945 16.2582 10.7143C16.2582 7.53412 13.6802 4.95608 10.5 4.95608C7.31982 4.95608 4.74178 7.53412 4.74178 10.7143Z"/>
<path d="M10.5 3.83519C10.5 3.21613 9.99573 2.70623 9.38274 2.79269C8.16098 2.96501 6.9903 3.41844 5.96546 4.12354C4.63141 5.04139 3.6073 6.34247 3.0285 7.8548C2.4497 9.36712 2.34347 11.0195 2.72384 12.5935C3.10421 14.1675 3.95329 15.589 5.15882 16.6701C6.36435 17.7512 7.86959 18.4411 9.47556 18.6484C11.0815 18.8558 12.7126 18.5709 14.1532 17.8315C15.5938 17.092 16.7761 15.9328 17.5438 14.507C18.1336 13.4117 18.4573 12.1988 18.4961 10.9655C18.5155 10.3468 17.9539 9.90079 17.3385 9.96796C16.7231 10.0351 16.2901 10.5919 16.237 11.2086C16.1698 11.9877 15.9444 12.7489 15.57 13.4442C15.0174 14.4704 14.1664 15.3048 13.1295 15.8371C12.0926 16.3693 10.9186 16.5744 9.76263 16.4251C8.60669 16.2759 7.52326 15.7793 6.65554 15.0012C5.78782 14.223 5.17668 13.1998 4.9029 12.0669C4.62912 10.934 4.70558 9.74463 5.12219 8.65609C5.53879 7.56756 6.27592 6.63107 7.23615 5.97042C7.88675 5.5228 8.61902 5.21608 9.38615 5.06483C9.99351 4.94508 10.5 4.45424 10.5 3.83519Z"/>
</svg>
